<mxfile host="65bd71144e" scale="1" border="5">
    <diagram id="DygxBxDoU2bb-XoBJA6e" name="проект">
        <mxGraphModel dx="779" dy="723" grid="1" gridSize="40" guides="1" tooltips="1" connect="1" arrows="1" fold="1" page="0" pageScale="1" pageWidth="827" pageHeight="1169" background="light-dark(#0000CC,#0000CC)" math="0" shadow="0" adaptiveColors="auto">
            <root>
                <mxCell id="0"/>
                <mxCell id="1" parent="0"/>
                <mxCell id="112" value="" style="edgeStyle=none;strokeWidth=2;sketch=1;curveFitting=1;jiggle=2;labelBackgroundColor=none;fontColor=default;" edge="1" parent="1" source="68" target="5">
                    <mxGeometry relative="1" as="geometry"/>
                </mxCell>
                <mxCell id="68" value="запрос клиента" style="rounded=1;whiteSpace=wrap;fontFamily=Helvetica;fontSize=15;fontColor=default;labelBackgroundColor=none;strokeColor=light-dark(#FFFFFF,#FFFFFF);strokeWidth=2;fillColor=none;align=center;labelBorderColor=none;swimlaneLine=1;shadow=0;sketch=1;curveFitting=1;jiggle=2;" parent="1" vertex="1">
                    <mxGeometry x="479" y="180" width="120" height="60" as="geometry"/>
                </mxCell>
                <mxCell id="9" value="" style="edgeStyle=none;shape=connector;rounded=1;strokeColor=light-dark(#FFFFFF,#FFFFFF);strokeWidth=2;align=center;verticalAlign=middle;fontFamily=Helvetica;fontSize=15;fontColor=default;labelBorderColor=none;labelBackgroundColor=none;endArrow=classic;swimlaneLine=1;startArrow=none;startFill=0;shadow=0;sketch=1;curveFitting=1;jiggle=2;endFill=1;" parent="1" source="5" target="8" edge="1">
                    <mxGeometry relative="1" as="geometry"/>
                </mxCell>
                <mxCell id="128" value="" style="edgeStyle=none;exitX=0.5;exitY=1;exitDx=0;exitDy=0;entryX=0.5;entryY=0;entryDx=0;entryDy=0;strokeWidth=2;sketch=1;curveFitting=1;jiggle=2;labelBackgroundColor=none;fontColor=default;" edge="1" parent="1" source="5" target="12">
                    <mxGeometry relative="1" as="geometry"/>
                </mxCell>
                <mxCell id="132" style="edgeStyle=none;html=1;exitX=1;exitY=0.5;exitDx=0;exitDy=0;entryX=0;entryY=0.5;entryDx=0;entryDy=0;rounded=1;sketch=1;jiggle=2;curveFitting=1;strokeColor=default;strokeWidth=2;align=center;verticalAlign=middle;fontFamily=Helvetica;fontSize=11;fontColor=default;labelBackgroundColor=none;endArrow=classic;" edge="1" parent="1" source="5" target="131">
                    <mxGeometry relative="1" as="geometry">
                        <Array as="points">
                            <mxPoint x="640" y="360"/>
                        </Array>
                    </mxGeometry>
                </mxCell>
                <mxCell id="5" value="роутер" style="rhombus;whiteSpace=wrap;rounded=1;glass=0;strokeColor=light-dark(#FFFFFF,#FFFFFF);strokeWidth=2;align=center;verticalAlign=middle;fontFamily=Helvetica;fontSize=15;fontColor=default;labelBorderColor=none;labelBackgroundColor=none;fillColor=none;swimlaneLine=1;shadow=0;sketch=1;curveFitting=1;jiggle=2;" parent="1" vertex="1">
                    <mxGeometry x="479" y="300" width="120" height="120" as="geometry"/>
                </mxCell>
                <mxCell id="119" value="" style="edgeStyle=none;exitX=0.5;exitY=1;exitDx=0;exitDy=0;entryX=0.5;entryY=0;entryDx=0;entryDy=0;strokeWidth=2;sketch=1;curveFitting=1;jiggle=2;labelBackgroundColor=none;fontColor=default;" edge="1" parent="1" source="8" target="116">
                    <mxGeometry relative="1" as="geometry"/>
                </mxCell>
                <mxCell id="8" value="финансовый учет" style="rounded=0;whiteSpace=wrap;glass=0;strokeColor=light-dark(#FFFFFF,#FFFFFF);strokeWidth=2;align=center;verticalAlign=middle;fontFamily=Helvetica;fontSize=15;fontColor=default;labelBorderColor=none;labelBackgroundColor=none;fillColor=none;swimlaneLine=1;shadow=0;sketch=1;curveFitting=1;jiggle=2;" parent="1" vertex="1">
                    <mxGeometry x="265" y="330" width="120" height="60" as="geometry"/>
                </mxCell>
                <mxCell id="130" value="" style="edgeStyle=none;exitX=1;exitY=0.5;exitDx=0;exitDy=0;entryX=0;entryY=0.5;entryDx=0;entryDy=0;strokeWidth=2;sketch=1;curveFitting=1;jiggle=2;labelBackgroundColor=none;fontColor=default;" edge="1" parent="1" source="10" target="88">
                    <mxGeometry relative="1" as="geometry"/>
                </mxCell>
                <mxCell id="10" value="уточнение информации" style="rounded=0;whiteSpace=wrap;glass=0;strokeColor=light-dark(#FFFFFF,#FFFFFF);strokeWidth=2;align=center;verticalAlign=middle;fontFamily=Helvetica;fontSize=15;fontColor=default;labelBorderColor=none;labelBackgroundColor=none;fillColor=none;swimlaneLine=1;shadow=0;sketch=1;curveFitting=1;jiggle=2;" parent="1" vertex="1">
                    <mxGeometry x="265" y="620" width="120" height="60" as="geometry"/>
                </mxCell>
                <mxCell id="129" value="" style="edgeStyle=none;exitX=0.5;exitY=1;exitDx=0;exitDy=0;entryX=0.5;entryY=0;entryDx=0;entryDy=0;strokeWidth=2;sketch=1;curveFitting=1;jiggle=2;labelBackgroundColor=none;fontColor=default;" edge="1" parent="1" source="12" target="88">
                    <mxGeometry relative="1" as="geometry"/>
                </mxCell>
                <mxCell id="12" value="финансовая аналитика" style="rounded=0;whiteSpace=wrap;glass=0;strokeColor=light-dark(#FFFFFF,#FFFFFF);strokeWidth=2;align=center;verticalAlign=middle;fontFamily=Helvetica;fontSize=15;fontColor=default;labelBorderColor=none;labelBackgroundColor=none;fillColor=none;swimlaneLine=1;shadow=0;sketch=1;curveFitting=1;jiggle=2;" parent="1" vertex="1">
                    <mxGeometry x="479" y="485" width="120" height="60" as="geometry"/>
                </mxCell>
                <mxCell id="134" style="edgeStyle=none;html=1;exitX=0.5;exitY=1;exitDx=0;exitDy=0;exitPerimeter=0;entryX=0.5;entryY=0;entryDx=0;entryDy=0;rounded=1;sketch=1;jiggle=2;curveFitting=1;strokeColor=default;strokeWidth=2;align=center;verticalAlign=middle;fontFamily=Helvetica;fontSize=11;fontColor=default;labelBackgroundColor=none;endArrow=classic;" edge="1" parent="1" source="33" target="8">
                    <mxGeometry relative="1" as="geometry"/>
                </mxCell>
                <mxCell id="135" style="edgeStyle=none;html=1;exitX=1;exitY=1;exitDx=0;exitDy=0;exitPerimeter=0;entryX=0;entryY=0;entryDx=0;entryDy=0;rounded=1;sketch=1;jiggle=2;curveFitting=1;strokeColor=default;strokeWidth=2;align=center;verticalAlign=middle;fontFamily=Helvetica;fontSize=11;fontColor=default;labelBackgroundColor=none;endArrow=classic;" edge="1" parent="1" source="33" target="5">
                    <mxGeometry relative="1" as="geometry"/>
                </mxCell>
                <mxCell id="33" value="саммари" style="shape=note;whiteSpace=wrap;backgroundOutline=1;darkOpacity=0.05;rounded=1;glass=0;strokeColor=light-dark(#FFFFFF,#FFFFFF);strokeWidth=2;align=center;verticalAlign=middle;fontFamily=Helvetica;fontSize=15;fontColor=default;labelBorderColor=none;labelBackgroundColor=none;fillColor=none;swimlaneLine=1;textShadow=0;shadow=0;sketch=1;curveFitting=1;jiggle=2;" parent="1" vertex="1">
                    <mxGeometry x="285" y="160" width="80" height="100" as="geometry"/>
                </mxCell>
                <mxCell id="77" value="отчет" style="shape=table;startSize=30;container=1;collapsible=0;childLayout=tableLayout;fixedRows=1;rowLines=0;fontStyle=0;strokeColor=light-dark(#FFFFFF,#FFFFFF);fontSize=15;fontFamily=Helvetica;fontColor=light-dark(#FFFFFF,#FFFFFF);labelBackgroundColor=none;strokeWidth=2;fillColor=none;labelBorderColor=none;swimlaneLine=1;whiteSpace=wrap;shadow=0;sketch=1;curveFitting=1;jiggle=2;" parent="1" vertex="1">
                    <mxGeometry x="40" y="445" width="170" height="120" as="geometry"/>
                </mxCell>
                <mxCell id="78" value="" style="shape=tableRow;horizontal=0;startSize=0;swimlaneHead=0;swimlaneBody=0;top=0;left=0;bottom=0;right=0;collapsible=0;dropTarget=0;fillColor=none;points=[[0,0.5],[1,0.5]];portConstraint=eastwest;strokeColor=light-dark(#FFFFFF,#FFFFFF);fontSize=15;fontFamily=Helvetica;fontColor=light-dark(#FFFFFF,#FFFFFF);labelBackgroundColor=none;strokeWidth=2;labelBorderColor=none;swimlaneLine=1;whiteSpace=wrap;shadow=0;sketch=1;curveFitting=1;jiggle=2;" parent="77" vertex="1">
                    <mxGeometry y="30" width="170" height="30" as="geometry"/>
                </mxCell>
                <mxCell id="79" value="1" style="shape=partialRectangle;html=1;whiteSpace=wrap;connectable=0;fillColor=none;top=0;left=0;bottom=0;right=0;overflow=hidden;pointerEvents=1;strokeColor=light-dark(#FFFFFF,#FFFFFF);fontSize=15;fontFamily=Helvetica;fontColor=light-dark(#FFFFFF,#FFFFFF);labelBackgroundColor=none;strokeWidth=2;labelBorderColor=none;swimlaneLine=1;shadow=0;sketch=1;curveFitting=1;jiggle=2;" parent="78" vertex="1">
                    <mxGeometry width="38" height="30" as="geometry">
                        <mxRectangle width="38" height="30" as="alternateBounds"/>
                    </mxGeometry>
                </mxCell>
                <mxCell id="80" value="&lt;font style=&quot;&quot;&gt;Value 1&lt;/font&gt;" style="shape=partialRectangle;html=1;whiteSpace=wrap;connectable=0;fillColor=none;top=0;left=0;bottom=0;right=0;align=left;spacingLeft=6;overflow=hidden;strokeColor=light-dark(#FFFFFF,#FFFFFF);fontSize=15;fontFamily=Helvetica;fontColor=light-dark(#FFFFFF,#FFFFFF);labelBackgroundColor=none;strokeWidth=2;labelBorderColor=none;swimlaneLine=1;shadow=0;sketch=1;curveFitting=1;jiggle=2;" parent="78" vertex="1">
                    <mxGeometry x="38" width="132" height="30" as="geometry">
                        <mxRectangle width="132" height="30" as="alternateBounds"/>
                    </mxGeometry>
                </mxCell>
                <mxCell id="81" value="" style="shape=tableRow;horizontal=0;startSize=0;swimlaneHead=0;swimlaneBody=0;top=0;left=0;bottom=0;right=0;collapsible=0;dropTarget=0;fillColor=none;points=[[0,0.5],[1,0.5]];portConstraint=eastwest;strokeColor=light-dark(#FFFFFF,#FFFFFF);fontSize=15;fontFamily=Helvetica;fontColor=light-dark(#FFFFFF,#FFFFFF);labelBackgroundColor=default;strokeWidth=2;labelBorderColor=none;swimlaneLine=1;whiteSpace=wrap;shadow=0;sketch=1;curveFitting=1;jiggle=2;" parent="77" vertex="1">
                    <mxGeometry y="60" width="170" height="30" as="geometry"/>
                </mxCell>
                <mxCell id="82" value="2" style="shape=partialRectangle;html=1;whiteSpace=wrap;connectable=0;fillColor=none;top=0;left=0;bottom=0;right=0;overflow=hidden;strokeColor=light-dark(#FFFFFF,#FFFFFF);fontSize=15;fontFamily=Helvetica;fontColor=light-dark(#FFFFFF,#FFFFFF);labelBackgroundColor=none;strokeWidth=2;labelBorderColor=none;swimlaneLine=1;shadow=0;sketch=1;curveFitting=1;jiggle=2;" parent="81" vertex="1">
                    <mxGeometry width="38" height="30" as="geometry">
                        <mxRectangle width="38" height="30" as="alternateBounds"/>
                    </mxGeometry>
                </mxCell>
                <mxCell id="83" value="&lt;font&gt;Value 2&lt;/font&gt;" style="shape=partialRectangle;html=1;whiteSpace=wrap;connectable=0;fillColor=none;top=0;left=0;bottom=0;right=0;align=left;spacingLeft=6;overflow=hidden;strokeColor=light-dark(#FFFFFF,#FFFFFF);fontSize=15;fontFamily=Helvetica;fontColor=light-dark(#FFFFFF,#FFFFFF);labelBackgroundColor=none;strokeWidth=2;labelBorderColor=none;swimlaneLine=1;shadow=0;sketch=1;curveFitting=1;jiggle=2;" parent="81" vertex="1">
                    <mxGeometry x="38" width="132" height="30" as="geometry">
                        <mxRectangle width="132" height="30" as="alternateBounds"/>
                    </mxGeometry>
                </mxCell>
                <mxCell id="84" value="" style="shape=tableRow;horizontal=0;startSize=0;swimlaneHead=0;swimlaneBody=0;top=0;left=0;bottom=0;right=0;collapsible=0;dropTarget=0;fillColor=none;points=[[0,0.5],[1,0.5]];portConstraint=eastwest;strokeColor=light-dark(#FFFFFF,#FFFFFF);fontSize=15;fontFamily=Helvetica;fontColor=light-dark(#FFFFFF,#FFFFFF);labelBackgroundColor=default;strokeWidth=2;labelBorderColor=none;swimlaneLine=1;whiteSpace=wrap;shadow=0;sketch=1;curveFitting=1;jiggle=2;" parent="77" vertex="1">
                    <mxGeometry y="90" width="170" height="30" as="geometry"/>
                </mxCell>
                <mxCell id="85" value="3" style="shape=partialRectangle;html=1;whiteSpace=wrap;connectable=0;fillColor=none;top=0;left=0;bottom=0;right=0;overflow=hidden;strokeColor=light-dark(#FFFFFF,#FFFFFF);fontSize=15;fontFamily=Helvetica;fontColor=light-dark(#FFFFFF,#FFFFFF);labelBackgroundColor=none;strokeWidth=2;labelBorderColor=none;swimlaneLine=1;shadow=0;sketch=1;curveFitting=1;jiggle=2;" parent="84" vertex="1">
                    <mxGeometry width="38" height="30" as="geometry">
                        <mxRectangle width="38" height="30" as="alternateBounds"/>
                    </mxGeometry>
                </mxCell>
                <mxCell id="86" value="&lt;font&gt;Value 3&lt;/font&gt;" style="shape=partialRectangle;html=1;whiteSpace=wrap;connectable=0;fillColor=none;top=0;left=0;bottom=0;right=0;align=left;spacingLeft=6;overflow=hidden;strokeColor=light-dark(#FFFFFF,#FFFFFF);fontSize=15;fontFamily=Helvetica;fontColor=light-dark(#FFFFFF,#FFFFFF);labelBackgroundColor=none;strokeWidth=2;labelBorderColor=none;swimlaneLine=1;shadow=0;sketch=1;curveFitting=1;jiggle=2;" parent="84" vertex="1">
                    <mxGeometry x="38" width="132" height="30" as="geometry">
                        <mxRectangle width="132" height="30" as="alternateBounds"/>
                    </mxGeometry>
                </mxCell>
                <mxCell id="88" value="ответ" style="rounded=1;whiteSpace=wrap;glass=0;strokeColor=light-dark(#FFFFFF,#FFFFFF);strokeWidth=2;align=center;verticalAlign=middle;fontFamily=Helvetica;fontSize=15;fontColor=default;labelBorderColor=none;labelBackgroundColor=none;fillColor=none;swimlaneLine=1;shadow=0;sketch=1;curveFitting=1;jiggle=2;" parent="1" vertex="1">
                    <mxGeometry x="479" y="620" width="120" height="60" as="geometry"/>
                </mxCell>
                <mxCell id="125" value="" style="edgeStyle=none;exitX=0.5;exitY=1;exitDx=0;exitDy=0;entryX=0.5;entryY=0;entryDx=0;entryDy=0;strokeWidth=2;flowAnimation=0;sketch=1;curveFitting=1;jiggle=2;labelBackgroundColor=none;fontColor=default;" edge="1" parent="1" source="116" target="10">
                    <mxGeometry relative="1" as="geometry"/>
                </mxCell>
                <mxCell id="116" value="if: ... else:" style="rhombus;whiteSpace=wrap;rounded=1;shadow=0;glass=0;sketch=1;jiggle=2;curveFitting=1;strokeColor=light-dark(#FFFFFF,#FFFFFF);strokeWidth=2;align=center;verticalAlign=middle;fontFamily=Helvetica;fontSize=15;fontColor=default;labelBorderColor=none;labelBackgroundColor=none;fillColor=none;" vertex="1" parent="1">
                    <mxGeometry x="285" y="465" width="80" height="80" as="geometry"/>
                </mxCell>
                <mxCell id="127" value="" style="edgeStyle=none;exitX=0;exitY=0.5;exitDx=0;exitDy=0;entryX=1.015;entryY=-0.033;entryDx=0;entryDy=0;entryPerimeter=0;strokeWidth=2;sketch=1;curveFitting=1;jiggle=2;labelBackgroundColor=none;fontColor=default;" edge="1" parent="1" source="116" target="81">
                    <mxGeometry relative="1" as="geometry"/>
                </mxCell>
                <mxCell id="139" style="edgeStyle=none;html=1;exitX=1;exitY=0.5;exitDx=0;exitDy=0;entryX=1;entryY=0.5;entryDx=0;entryDy=0;rounded=1;sketch=1;jiggle=2;curveFitting=1;strokeColor=default;strokeWidth=2;align=center;verticalAlign=middle;fontFamily=Helvetica;fontSize=11;fontColor=default;labelBackgroundColor=none;endArrow=classic;" edge="1" parent="1" source="131" target="88">
                    <mxGeometry relative="1" as="geometry">
                        <Array as="points">
                            <mxPoint x="880" y="360"/>
                            <mxPoint x="880" y="650"/>
                        </Array>
                    </mxGeometry>
                </mxCell>
                <mxCell id="131" value="шутка" style="rounded=0;whiteSpace=wrap;glass=0;strokeColor=light-dark(#FFFFFF,#FFFFFF);strokeWidth=2;align=center;verticalAlign=middle;fontFamily=Helvetica;fontSize=15;fontColor=default;labelBorderColor=none;labelBackgroundColor=none;fillColor=none;swimlaneLine=1;shadow=0;sketch=1;curveFitting=1;jiggle=2;" vertex="1" parent="1">
                    <mxGeometry x="685" y="330" width="120" height="60" as="geometry"/>
                </mxCell>
                <mxCell id="133" style="edgeStyle=none;html=1;exitX=0;exitY=0.5;exitDx=0;exitDy=0;entryX=0;entryY=0;entryDx=80;entryDy=65;entryPerimeter=0;rounded=1;sketch=1;jiggle=2;curveFitting=1;strokeColor=default;strokeWidth=2;align=center;verticalAlign=middle;fontFamily=Helvetica;fontSize=11;fontColor=default;labelBackgroundColor=none;endArrow=classic;" edge="1" parent="1" source="68" target="33">
                    <mxGeometry relative="1" as="geometry"/>
                </mxCell>
                <mxCell id="138" style="edgeStyle=none;html=1;exitX=0;exitY=0.5;exitDx=0;exitDy=0;exitPerimeter=0;entryX=1;entryY=0.5;entryDx=0;entryDy=0;rounded=1;sketch=1;jiggle=2;curveFitting=1;strokeColor=default;strokeWidth=2;align=center;verticalAlign=middle;fontFamily=Helvetica;fontSize=11;fontColor=default;labelBackgroundColor=none;endArrow=classic;" edge="1" parent="1" source="137" target="12">
                    <mxGeometry relative="1" as="geometry"/>
                </mxCell>
                <mxCell id="137" value="ОДДС" style="shape=note;whiteSpace=wrap;backgroundOutline=1;darkOpacity=0.05;rounded=1;glass=0;strokeColor=light-dark(#FFFFFF,#FFFFFF);strokeWidth=2;align=center;verticalAlign=middle;fontFamily=Helvetica;fontSize=15;fontColor=default;labelBorderColor=none;labelBackgroundColor=none;fillColor=none;swimlaneLine=1;textShadow=0;shadow=0;sketch=1;curveFitting=1;jiggle=2;" vertex="1" parent="1">
                    <mxGeometry x="705" y="465" width="80" height="100" as="geometry"/>
                </mxCell>
            </root>
        </mxGraphModel>
    </diagram>
</mxfile>